<svg width="120" height="30" viewBox="0 0 120 30" fill="none" xmlns="http://www.w3.org/2000/svg">
<mask id="mask0_28_8699" style="mask-type:luminance" maskUnits="userSpaceOnUse" x="0" y="0" width="31" height="31">
<path fill-rule="evenodd" clip-rule="evenodd" d="M0 0H30.0309V30.0075H0V0Z" fill="white"/>
</mask>
<g mask="url(#mask0_28_8699)">
<path fill-rule="evenodd" clip-rule="evenodd" d="M25.591 -0.000305176C28.0329 -0.000305176 30.031 1.99658 30.031 4.43665V25.5706C30.031 28.0107 28.0329 30.0072 25.591 30.0072L4.44042 30.0076C1.99845 30.0076 0 28.0107 0 25.5706V9.39051L0.0118728 4.19895C0.137809 1.86862 2.07859 -0.000305176 4.44085 -0.000305176H25.591Z" fill="white"/>
</g>
<path fill-rule="evenodd" clip-rule="evenodd" d="M70.258 24.836C69.1203 27.349 67.2457 27.6769 66.4095 27.7731C65.5305 27.8748 64.5875 27.8337 64.5875 27.8337V25.7792C66.2565 25.7792 67.166 25.9097 68.1493 23.959L68.818 22.2663L62.6666 10.0351H66.5957L70.629 18.1658L74.1951 10.0368H76.749C76.749 10.0368 71.3961 22.3231 70.258 24.836ZM55.9068 21.8109C54.2794 21.8109 53.1112 20.6118 53.1112 18.8407C53.1112 17.0693 54.6728 16.0261 56.0972 16.0261C56.8138 16.0261 57.4977 16.2236 57.7619 16.4502V20.991C57.3031 21.3893 56.7688 21.8109 55.9068 21.8109ZM55.7482 10.0368C52.9119 10.0368 51.4562 10.7325 51.4562 10.7325L51.803 11.7841C51.803 11.7841 52.8707 11.2892 54.9637 11.2892C57.2887 11.2892 57.7619 12.4179 57.7619 13.9568L57.7314 14.6449C57.2344 14.4983 56.0696 14.3055 54.8764 14.3055C53.1039 14.3055 50.1756 15.3986 50.1756 18.9632C50.1756 22.3595 52.7545 23.4667 54.5859 23.4667C56.0967 23.4667 57.016 23.0002 57.7619 22.5383V23.2349H61.5056V13.9568C61.5056 11.0227 58.5849 10.0368 55.7482 10.0368ZM40.0002 15.441V7.40814C40.0002 7.40814 41.1553 7.4128 42.4519 7.4128C44.2905 7.4128 46.3186 8.80718 46.3186 11.1964C46.3186 13.5856 44.2905 15.4435 42.4524 15.4435C40.6693 15.4435 40.0002 15.441 40.0002 15.441ZM42.4519 5.60785H40.0002H37.1312C36.6457 5.60785 36.2522 6.00062 36.2522 6.48575V23.2349H40.0002V17.2417C40.0002 17.2417 41.0925 17.2438 42.4523 17.2438C46.0795 17.2438 49.3661 14.9834 49.3661 11.1523C49.3661 7.32255 46.0795 5.60785 42.4519 5.60785ZM113.11 24.836C111.971 27.349 110.098 27.6769 109.261 27.7731C108.381 27.8748 107.439 27.8337 107.439 27.8337V25.7792C109.108 25.7792 110.017 25.9097 111.002 23.959L111.669 22.2663L105.518 10.0351H109.448L113.481 18.1658L117.047 10.0368H119.6C119.6 10.0368 114.248 22.3231 113.11 24.836ZM98.7587 21.8109C97.1308 21.8109 95.9635 20.6118 95.9635 18.8407C95.9635 17.0693 97.5247 16.0261 98.9486 16.0261C99.6661 16.0261 100.349 16.2236 100.613 16.4502V20.991C100.155 21.3893 99.6199 21.8109 98.7587 21.8109ZM98.5996 10.0368C95.7629 10.0368 94.3076 10.7325 94.3076 10.7325L94.6545 11.7841C94.6545 11.7841 95.723 11.2892 97.8148 11.2892C100.14 11.2892 100.613 12.4179 100.613 13.9568L100.584 14.6449C100.085 14.4983 98.9206 14.3055 97.7278 14.3055C95.955 14.3055 93.0266 15.3986 93.0266 18.9632C93.0266 22.3595 95.606 23.4667 97.437 23.4667C98.9482 23.4667 99.8679 23.0002 100.613 22.5383V23.2349H104.358V13.9568C104.358 11.0227 101.436 10.0368 98.5996 10.0368ZM82.8512 15.441V7.40814C82.8512 7.40814 84.0071 7.4128 85.3034 7.4128C87.142 7.4128 89.1705 8.80718 89.1705 11.1964C89.1705 13.5856 87.142 15.4435 85.3034 15.4435C83.5212 15.4435 82.8512 15.441 82.8512 15.441ZM85.3034 5.60785H82.8512H79.9827C79.4972 5.60785 79.1037 6.00062 79.1037 6.48575V23.2349H82.8512V17.2417C82.8512 17.2417 83.9435 17.2438 85.3034 17.2438C88.9309 17.2438 92.2176 14.9834 92.2176 11.1523C92.2176 7.32255 88.9309 5.60785 85.3034 5.60785Z" fill="#3F3A39"/>
<mask id="mask1_28_8699" style="mask-type:luminance" maskUnits="userSpaceOnUse" x="0" y="0" width="31" height="31">
<path fill-rule="evenodd" clip-rule="evenodd" d="M0 0H30.0309V30.0075H0V0Z" fill="white"/>
</mask>
<g mask="url(#mask1_28_8699)">
<path fill-rule="evenodd" clip-rule="evenodd" d="M25.591 -0.000305176H4.44085C2.07858 -0.000305176 0.137807 1.86862 0.0118706 4.19895C17.7193 3.69899 26.3326 9.8553 24.9804 15.9921C23.7625 21.518 18.1446 23.6365 9.01526 24.3322L7.64989 30.0072H25.591C28.0329 30.0072 30.031 28.0107 30.031 25.5706V4.43665C30.031 1.99658 28.0329 -0.000305176 25.591 -0.000305176ZM23.9105 16.0192C24.6144 13.1529 19.99 10.5014 12.5835 9.50025L9.89471 20.6769C16.1021 20.9706 23.1532 19.1033 23.9105 16.0192ZM5.84862 30.0076H4.44042C1.99845 30.0076 0 28.0107 0 25.5706V9.39051C3.98502 8.988 7.70163 8.99605 10.9611 9.31297L5.84862 30.0076Z" fill="#FF0033"/>
</g>
</svg>
